<?xml version="1.0" standalone="no"?>
<!DOCTYPE svg PUBLIC "-//W3C//DTD SVG 20010904//EN"
 "http://www.w3.org/TR/2001/REC-SVG-20010904/DTD/svg10.dtd">
<svg version="1.0" xmlns="http://www.w3.org/2000/svg"
 width="70.000000pt" height="70.000000pt" viewBox="0 0 70.000000 70.000000"
 preserveAspectRatio="xMidYMid meet">
<metadata>
Created by potrace 1.11, written by Peter Selinger 2001-2013
</metadata>
<g transform="translate(0.000000,70.000000) scale(0.100000,-0.100000)"
fill="#000000" stroke="none">
<path d="M310 658 c0 -4 6 -8 13 -8 39 0 90 -99 87 -169 -2 -25 -2 -51 -1 -57
1 -13 41 -61 41 -49 0 4 6 3 13 -4 10 -8 17 -7 25 1 7 7 12 8 12 4 0 -5 8 2
18 14 12 15 19 42 21 77 2 46 -3 62 -30 104 -34 53 -76 92 -90 83 -5 -3 -9 -2
-9 3 0 4 -23 8 -50 9 -28 0 -50 -3 -50 -8z"/>
<path d="M218 588 c-71 -76 -71 -260 0 -343 16 -19 22 -23 17 -10 -15 35 -17
105 -5 136 7 16 31 42 54 57 51 35 68 66 62 116 -6 48 -27 70 -68 72 -24 1
-40 -6 -60 -28z"/>
<path d="M280 332 c-38 -47 -18 -136 35 -160 70 -32 157 14 206 110 10 21 19
45 19 54 0 16 -1 16 -18 1 -10 -10 -24 -17 -30 -17 -7 0 -12 -3 -12 -7 0 -5
-16 -8 -35 -8 -19 0 -35 3 -35 6 0 4 -13 12 -30 19 -16 7 -30 16 -30 20 0 19
-52 6 -70 -18z"/>
<path d="M36 94 c-4 -15 -3 -30 2 -33 5 -3 12 -15 15 -26 2 -11 5 -2 6 20 1
52 -14 78 -23 39z"/>
<path d="M71 66 c1 -28 4 -42 6 -32 3 11 11 26 19 34 8 7 14 20 14 28 0 8 4
14 9 14 6 0 11 -24 13 -52 l3 -53 5 57 5 57 -37 -1 -38 0 1 -52z m16 12 c-3
-7 -5 -2 -5 12 0 14 2 19 5 13 2 -7 2 -19 0 -25z"/>
<path d="M160 70 c0 -27 4 -50 9 -50 5 0 7 9 4 20 -3 11 0 20 6 20 8 0 7 6 -1
20 -11 17 -10 22 2 30 13 8 12 10 -2 10 -15 0 -18 -9 -18 -50z"/>
<path d="M201 70 c1 -33 4 -43 6 -26 4 23 7 26 15 15 7 -10 8 -5 3 16 -12 55
-25 52 -24 -5z"/>
<path d="M243 65 c0 -33 2 -45 4 -27 2 18 2 45 0 60 -2 15 -4 0 -4 -33z"/>
<path d="M309 68 c2 -29 6 -46 8 -38 3 8 9 25 15 37 12 25 5 53 -14 53 -9 0
-12 -14 -9 -52z m18 10 c-3 -7 -5 -2 -5 12 0 14 2 19 5 13 2 -7 2 -19 0 -25z"/>
<path d="M356 94 c-4 -15 -3 -30 2 -33 5 -3 12 -15 15 -26 2 -11 5 -2 6 20 1
52 -14 78 -23 39z"/>
<path d="M420 109 c0 -5 -3 -8 -7 -6 -5 3 -8 -7 -9 -21 0 -15 -4 -35 -8 -44
-5 -10 -4 -18 1 -18 5 0 16 23 24 50 9 28 12 50 7 50 -4 0 -8 -5 -8 -11z"/>
<path d="M451 70 l1 -55 10 44 c7 30 6 47 -1 54 -8 8 -11 -4 -10 -43z"/>
<path d="M487 113 c-3 -5 -7 -24 -11 -43 -4 -25 -3 -29 3 -15 7 17 9 15 13
-15 4 -26 5 -20 6 23 2 54 -1 67 -11 50z"/>
<path d="M536 94 c5 -19 4 -25 -5 -20 -6 4 -11 2 -11 -3 0 -6 4 -11 9 -11 5 0
12 -10 14 -22 2 -13 5 -2 6 24 0 26 -4 50 -9 53 -7 4 -8 -3 -4 -21z"/>
<path d="M563 70 c0 -31 2 -41 4 -22 3 19 10 32 19 32 8 0 14 9 13 23 -1 16
-2 18 -6 5 -2 -10 -8 -18 -13 -18 -5 0 -11 8 -13 18 -3 9 -4 -8 -4 -38z"/>
<path d="M617 113 c-9 -8 -9 -88 0 -96 12 -12 33 15 33 43 0 48 -15 72 -33 53z
m23 -48 c0 -19 -4 -37 -10 -40 -6 -4 -10 12 -10 40 0 28 4 44 10 40 6 -3 10
-21 10 -40z"/>
<path d="M660 64 c0 -40 4 -55 13 -52 6 3 13 20 14 39 l1 34 -8 -30 c-7 -29
-8 -29 -9 -4 0 14 4 30 10 36 12 12 4 33 -12 33 -5 0 -9 -25 -9 -56z"/>
<path d="M591 24 c0 -11 3 -14 6 -6 3 7 2 16 -1 19 -3 4 -6 -2 -5 -13z"/>
</g>
</svg>
